<?xml version="1.0" encoding="utf-8"?>
<!-- Generator: Adobe Illustrator 16.0.0, SVG Export Plug-In . SVG Version: 6.00 Build 0)  -->
<!DOCTYPE svg PUBLIC "-//W3C//DTD SVG 1.1//EN" "http://www.w3.org/Graphics/SVG/1.1/DTD/svg11.dtd">
<svg version="1.1" id="Layer_1" xmlns="http://www.w3.org/2000/svg" xmlns:xlink="http://www.w3.org/1999/xlink" x="0px" y="0px"
	 width="252.648px" height="251.301px" viewBox="0 0 252.648 251.301" enable-background="new 0 0 252.648 251.301"
	 xml:space="preserve">
<path opacity="0.2" fill-rule="evenodd" clip-rule="evenodd" fill="#552222" d="M211.752,33.012
	c3.695-4.126,7.057-8.236,10.793-11.974c6.521-6.522,12.887-4.954,15.119,3.778c4.978,19.463,9.839,38.956,14.555,58.482
	c1.863,7.727-2.492,12.471-10.158,10.707c-20.221-4.65-40.381-9.576-60.492-14.689c-7.129-1.812-8.723-8.266-3.58-13.695
	c4.25-4.487,8.894-8.601,13.898-13.392c-9.918-9.346-20.984-15.357-33.09-19.533c-43.706-15.073-92.105,1.795-115.992,40.315
	c-25.091,40.464-19.09,91.688,14.517,124.833c2.463,2.43,4.971,5.214,6.268,8.331c2.356,5.658-0.462,12.225-5.777,15.474
	c-5.501,3.365-11.455,2.89-16.389-1.936C4.779,183.87-8.65,140.775,5.552,91.408c14.121-49.082,47.878-79.151,98.049-88.97
	C143.617-5.393,179.225,5.861,211.752,33.012z"/>
<path opacity="0.2" fill-rule="evenodd" clip-rule="evenodd" fill="#552222" d="M139.88,93.543
	c0.417,8.833-1.417,18.366,1.42,24.828c3.016,6.87,13.63,9.79,20.854,14.464c3.152,2.039,6.436,3.897,9.459,6.111
	c5.954,4.361,7.34,11.541,3.604,17.579c-3.771,6.094-11.068,8.764-17.236,5.099c-13.472-8.002-26.756-16.368-39.654-25.256
	c-2.758-1.9-4.93-6.618-5.019-10.098c-0.484-18.997-0.347-38.015-0.182-57.023c0.067-7.802,6.056-13.621,13.332-13.638
	c7.255-0.017,13.019,5.817,13.432,13.602c0.023,0.441,0.022,0.884,0.022,1.325c0.001,7.294,0.001,14.59,0.001,21.884
	C140.106,92.42,139.685,93.542,139.88,93.543z"/>
<path opacity="0.2" fill-rule="evenodd" clip-rule="evenodd" fill="#552222" d="M191.992,232.06
	c-7.446,0.093-13.502-5.659-13.758-13.07c-0.275-7.991,9.641-17.53,18.236-17.541c7.111-0.008,13.336,6.23,13.487,13.518
	C210.12,222.818,200.52,231.953,191.992,232.06z"/>
<path opacity="0.2" fill-rule="evenodd" clip-rule="evenodd" fill="#552222" d="M162.637,236.958
	c-0.154,8.949-7.698,14.497-19.506,14.341c-7.23-0.095-13.354-6.484-13.264-13.836c0.109-8.971,7.891-14.647,19.504-14.229
	C156.9,223.506,162.762,229.572,162.637,236.958z"/>
<path opacity="0.2" fill-rule="evenodd" clip-rule="evenodd" fill="#552222" d="M96.977,248.209
	c-11.148-0.038-19.152-6.482-18.94-15.25c0.177-7.272,5.867-12.913,13.146-13.032c10.747-0.177,19.457,6.529,19.358,14.905
	C110.451,242.333,104.469,248.234,96.977,248.209z"/>
</svg>
